<?xml version="1.0" encoding="utf-8"?>
<!-- Generator: Adobe Illustrator 23.0.1, SVG Export Plug-In . SVG Version: 6.00 Build 0)  -->
<svg version="1.1" id="Layer_1" xmlns="http://www.w3.org/2000/svg" xmlns:xlink="http://www.w3.org/1999/xlink" x="0px" y="0px"
	 viewBox="0 0 44 44" style="enable-background:new 0 0 44 44;" xml:space="preserve">
<style type="text/css">
	.st0{fill:url(#SVGID_1_);}
	.st1{fill:url(#SVGID_2_);}
	.st2{fill:url(#SVGID_3_);}
</style>
<g>
	<linearGradient id="SVGID_1_" gradientUnits="userSpaceOnUse" x1="11.359" y1="26.8389" x2="32.6418" y2="26.8389">
		<stop  offset="0" style="stop-color:#1A9AF5"/>
		<stop  offset="1" style="stop-color:#1689F9"/>
	</linearGradient>
	<path class="st0" d="M32.64,21.03c0-3.02-1.29-5.91-3.55-7.93c-2.25-2.02-5.28-2.97-8.31-2.64c-4.75,0.53-8.68,4.34-9.33,9.07
		c-0.51,3.71,0.89,7.33,3.76,9.7c1.24,1.02,1.95,2.49,1.95,4.02v6.17c0,1.6,1.3,2.9,2.9,2.9c0,0.53,0.43,0.97,0.97,0.97h1.93
		c0.53,0,0.97-0.43,0.97-0.97c1.6,0,2.9-1.3,2.9-2.9v-5.8c0-0.53-0.43-0.97-0.97-0.97H22c-0.53,0-0.97,0.43-0.97,0.97
		s0.43,0.97,0.97,0.97h2.9v4.84c0,0.53-0.43,0.97-0.97,0.97h-3.87c-0.53,0-0.97-0.43-0.97-0.97v-6.17c0-2.11-0.96-4.12-2.65-5.51
		c-2.34-1.94-3.49-4.91-3.07-7.95c0.53-3.86,3.74-6.98,7.63-7.41c2.52-0.28,4.93,0.49,6.8,2.16c1.84,1.65,2.9,4.02,2.9,6.49
		c0,2.58-1.13,5.01-3.11,6.67c-0.62,0.52-1.15,1.12-1.57,1.79c-0.29,0.45-0.16,1.05,0.29,1.34c0.45,0.29,1.05,0.16,1.34-0.29
		c0.32-0.5,0.72-0.95,1.19-1.35C31.26,27.15,32.64,24.18,32.64,21.03z"/>
	<linearGradient id="SVGID_2_" gradientUnits="userSpaceOnUse" x1="15.228" y1="18.1303" x2="22.9674" y2="18.1303">
		<stop  offset="0" style="stop-color:#F3C57A"/>
		<stop  offset="0.4937" style="stop-color:#F39369"/>
		<stop  offset="1" style="stop-color:#E94867"/>
	</linearGradient>
	<path class="st1" d="M15.23,21.03c0,0.53,0.43,0.97,0.97,0.97c0.53,0,0.97-0.43,0.97-0.97c0-2.67,2.17-4.84,4.84-4.84
		c0.53,0,0.97-0.43,0.97-0.97s-0.43-0.97-0.97-0.97C18.27,14.26,15.23,17.3,15.23,21.03z"/>
	<linearGradient id="SVGID_3_" gradientUnits="userSpaceOnUse" x1="0.7164" y1="19.875" x2="43.2836" y2="19.875">
		<stop  offset="0" style="stop-color:#1A9AF5"/>
		<stop  offset="1" style="stop-color:#1689F9"/>
	</linearGradient>
	<path class="st2" d="M39.82,17.16c-0.65,0-1.22-0.41-1.44-1.05c-0.18-0.51-0.4-1.03-0.63-1.53c-0.29-0.61-0.18-1.31,0.28-1.77
		c1.35-1.35,1.35-3.55,0-4.9l-1.94-1.94c-1.35-1.35-3.55-1.35-4.9,0c-0.46,0.46-1.15,0.57-1.76,0.28c-0.5-0.23-1.01-0.45-1.53-0.63
		c-0.64-0.23-1.05-0.8-1.05-1.44c0-1.91-1.55-3.46-3.46-3.46h-2.75c-1.91,0-3.46,1.55-3.46,3.46c0,0.65-0.41,1.22-1.05,1.44
		c-0.52,0.19-1.03,0.4-1.53,0.63c-0.61,0.29-1.31,0.18-1.77-0.28c-1.35-1.35-3.55-1.35-4.9,0L5.98,7.92c-1.35,1.35-1.35,3.55,0,4.9
		c0.46,0.46,0.57,1.15,0.28,1.77c-0.24,0.5-0.45,1.02-0.63,1.53c-0.23,0.64-0.8,1.05-1.44,1.05c-1.91,0-3.46,1.55-3.46,3.46v2.75
		c0,1.91,1.55,3.46,3.46,3.46c0.65,0,1.22,0.41,1.44,1.05c0.18,0.51,0.4,1.03,0.63,1.53c0.29,0.61,0.18,1.3-0.28,1.76
		c-1.35,1.35-1.35,3.55,0,4.9l1.94,1.94c1.35,1.35,3.55,1.35,4.9,0c0.34-0.34,0.82-0.49,1.3-0.42c0.53,0.09,1.02-0.29,1.1-0.82
		c0.08-0.53-0.29-1.02-0.82-1.1c-1.09-0.16-2.17,0.19-2.95,0.97c-0.6,0.6-1.57,0.6-2.16,0l-1.94-1.94c-0.6-0.6-0.6-1.57,0-2.16
		c1.03-1.03,1.29-2.62,0.66-3.96c-0.21-0.45-0.4-0.9-0.56-1.36c-0.5-1.39-1.81-2.33-3.27-2.33c-0.84,0-1.53-0.69-1.53-1.53v-2.75
		c0-0.84,0.69-1.53,1.53-1.53c1.45,0,2.76-0.93,3.27-2.33c0.16-0.45,0.35-0.91,0.56-1.36c0.63-1.34,0.37-2.93-0.66-3.96
		c-0.6-0.6-0.6-1.57,0-2.16l1.94-1.94c0.6-0.6,1.57-0.6,2.16,0c1.03,1.03,2.62,1.29,3.96,0.66c0.44-0.21,0.9-0.4,1.36-0.56
		c1.39-0.5,2.33-1.81,2.33-3.27c0-0.84,0.69-1.53,1.53-1.53h2.75c0.84,0,1.53,0.69,1.53,1.53c0,1.45,0.94,2.77,2.33,3.27
		c0.46,0.17,0.92,0.36,1.36,0.56c1.34,0.63,2.93,0.37,3.96-0.66c0.6-0.6,1.57-0.6,2.16,0l1.94,1.94c0.6,0.6,0.6,1.57,0,2.16
		c-1.03,1.03-1.29,2.62-0.66,3.96c0.21,0.45,0.4,0.9,0.56,1.36c0.5,1.39,1.81,2.33,3.27,2.33c0.84,0,1.53,0.69,1.53,1.53v2.75
		c0,0.84-0.69,1.53-1.53,1.53c-1.45,0-2.76,0.93-3.27,2.33c-0.16,0.45-0.35,0.91-0.56,1.36c-0.63,1.34-0.37,2.93,0.66,3.96
		c0.6,0.6,0.6,1.57,0,2.16l-1.94,1.94c-0.6,0.6-1.57,0.6-2.16,0c-0.78-0.78-1.85-1.13-2.95-0.97c-0.53,0.08-0.89,0.57-0.82,1.1
		c0.08,0.53,0.57,0.9,1.1,0.82c0.49-0.07,0.96,0.08,1.3,0.42c0.68,0.68,1.56,1.01,2.45,1.01s1.78-0.34,2.45-1.01l1.94-1.94
		c1.35-1.35,1.35-3.55,0-4.9c-0.46-0.46-0.57-1.15-0.28-1.77c0.24-0.5,0.45-1.02,0.63-1.53c0.23-0.64,0.8-1.05,1.44-1.05
		c1.91,0,3.46-1.55,3.46-3.46v-2.75C43.28,18.72,41.73,17.16,39.82,17.16z"/>
</g>
</svg>
