<?xml version="1.0" encoding="utf-8"?>
<!-- Generator: Adobe Illustrator 23.0.1, SVG Export Plug-In . SVG Version: 6.00 Build 0)  -->
<svg version="1.1" id="Layer_1" xmlns="http://www.w3.org/2000/svg" xmlns:xlink="http://www.w3.org/1999/xlink" x="0px" y="0px"
	 viewBox="0 0 150 150" style="enable-background:new 0 0 150 150;" xml:space="preserve">
<style type="text/css">
	.st0{fill:#E9F6FF;}
	.st1{fill:#E4EFFF;}
	.st2{fill:#D1DBEA;}
	.st3{fill:#FFFFFF;}
	.st4{fill:#74B2E8;}
	.st5{fill:#ACD4F8;}
	.st6{fill:#194866;}
	.st7{fill:#8DCFFF;}
	.st8{fill:#0C1153;}
	.st9{fill:#D4EDFF;}
	.st10{fill:#B0BFDE;}
	.st11{fill:#7DC2F5;}
	.st12{fill:#0253A2;}
	.st13{enable-background:new    ;}
	.st14{fill:#0063CB;}
	.st15{fill:#387BFF;}
	.st16{fill:#EE5A28;}
	.st17{fill:#FFAB01;}
	.st18{fill:#FFCA10;}
	.st19{fill:#FFC910;}
	.st20{fill:#F99B0F;}
	.st21{fill:#EE8F01;}
	.st22{fill:#D9E1E4;}
</style>
<path class="st0" d="M150,149.47V0c-13.42,5.85-15.14,31.54-24.45,33.83C112.66,37.01,89.03-1.28,70.5,62.98
	c-11.86,41.12-11.37,74.38-37.86,58.41c-20.1-12.12-25.83,8.04-32.55,28.08H150z"/>
<g>
	<g>
		<path class="st1" d="M141.21,98.92c0.59-1.14-0.19-2.09-3.09-2.55c-3.17-0.5-6.19-0.07-8.66,0.66c5.8-3.53,12.56-8.46,6.3-8.91
			c-1.95-0.14-4.92,1.05-8.22,2.88c3.65-3.71,5.64-6.74,3.38-7.26c-2.1-0.48-6.3,2.56-10.77,6.57c2.53-3.34,3.97-6.25,2.79-7.58
			c-0.97-1.09-2.96,0.22-5.25,2.61c0.07-2.07-0.68-3.31-2.32-3.03c-1.54,0.26-2.76,2.68-3.6,5.57c-1.56-4.44-5.54-7.09-9.47-5.67
			c-4.62,1.67-0.7,12.3,1.47,17.35L141.21,98.92z"/>
		<g>
			<g>
				<path class="st2" d="M25.99,80.58c0,0-0.66-0.63-0.75-1.48c-0.03-0.31,0.17-0.87,0.49-0.9c0.32-0.04,0.62,0.33,0.67,0.78
					C26.5,79.83,25.99,80.58,25.99,80.58z"/>
				<path class="st2" d="M26.25,81.99c0,0,0.01-0.79,0.51-1.34c0.18-0.2,0.66-0.39,0.87-0.2c0.21,0.19,0.16,0.6-0.1,0.89
					C27.04,81.89,26.25,81.99,26.25,81.99z"/>
				<path class="st2" d="M26.23,83.66c0,0,0.34-0.72,1.01-1.02c0.24-0.11,0.76-0.08,0.88,0.18c0.12,0.26-0.1,0.61-0.46,0.77
					C26.99,83.89,26.23,83.66,26.23,83.66z"/>
				<path class="st2" d="M26.23,82.03c0,0-0.73,0.07-1.37-0.29c-0.23-0.13-0.54-0.53-0.43-0.73c0.12-0.2,0.51-0.2,0.84-0.01
					C25.92,81.37,26.23,82.03,26.23,82.03z"/>
				<path class="st2" d="M26.34,83.66c0,0-0.74,0.1-1.39-0.27c-0.23-0.13-0.54-0.54-0.41-0.75c0.12-0.22,0.52-0.22,0.86-0.03
					C26.04,82.97,26.34,83.66,26.34,83.66z"/>
				<path class="st2" d="M26.06,85.89c0,0-0.62,0.17-1.11-0.11c-0.18-0.1-0.39-0.45-0.26-0.67c0.12-0.22,0.45-0.26,0.71-0.12
					C25.89,85.27,26.06,85.89,26.06,85.89z"/>
				<path class="st2" d="M26.15,85.89c0,0,0.21-0.58,0.72-0.9c0.18-0.12,0.59-0.18,0.7,0c0.11,0.17-0.03,0.46-0.3,0.63
					C26.77,85.94,26.15,85.89,26.15,85.89z"/>
			</g>
			<g>
				<path class="st2" d="M26.95,94.92c0.18,0.05,0.31,0.03,0.32,0.03l-0.03-0.15l0.01,0.07l-0.01-0.07c-0.01,0-0.35,0.05-0.71-0.31
					c-0.4-0.4-0.67-1.14-0.79-2.19c-0.16-1.44-0.04-3.44,0.37-5.94c0.47-2.9,0.19-4.47,0-5.52c-0.05-0.27-0.09-0.5-0.11-0.7
					l-0.15,0.01c0.02,0.2,0.06,0.44,0.11,0.71c0.18,1.03,0.46,2.59,0,5.47c-0.9,5.56-0.24,7.56,0.47,8.27
					C26.62,94.79,26.8,94.88,26.95,94.92z"/>
			</g>
		</g>
		<g>
			<path class="st1" d="M110.42,79.52c-1.72,4.87-0.78,10.05,2.06,13.97c4.68-1.26,8.67-4.7,10.39-9.57
				c1.72-4.87,0.78-10.05-2.06-13.97C116.13,71.21,112.14,74.64,110.42,79.52z"/>
			<g>
				<g>
					
						<rect x="105.37" y="82.05" transform="matrix(0.3337 -0.9427 0.9427 0.3337 0.0986 164.4848)" class="st3" width="22.06" height="0.24"/>
				</g>
				<g>
					
						<rect x="118.46" y="75.27" transform="matrix(0.931 -0.365 0.365 0.931 -19.2166 49.1274)" class="st3" width="3.74" height="0.24"/>
				</g>
				<g>
					
						<rect x="117.17" y="78.65" transform="matrix(0.931 -0.3651 0.3651 0.931 -20.5129 49.0577)" class="st3" width="4.61" height="0.24"/>
				</g>
				<g>
					
						<rect x="115.81" y="81.63" transform="matrix(0.931 -0.365 0.365 0.931 -21.5865 49.3259)" class="st3" width="7.71" height="0.24"/>
				</g>
				<g>
					
						<rect x="114.56" y="85.22" transform="matrix(0.931 -0.365 0.365 0.931 -22.9883 49.0802)" class="st3" width="7.5" height="0.24"/>
				</g>
				<g>
					
						<rect x="113.43" y="89.37" transform="matrix(0.931 -0.3651 0.3651 0.931 -24.6995 48.3502)" class="st3" width="4.18" height="0.24"/>
				</g>
				<g>
					
						<rect x="117.63" y="72.12" transform="matrix(0.8692 -0.4945 0.4945 0.8692 -21.1871 67.9113)" class="st3" width="0.24" height="3.74"/>
				</g>
				<g>
					
						<rect x="115.85" y="73.71" transform="matrix(0.8691 -0.4946 0.4946 0.8691 -22.7232 67.3893)" class="st3" width="0.24" height="5.84"/>
				</g>
				<g>
					
						<rect x="114.24" y="75.89" transform="matrix(0.8692 -0.4945 0.4945 0.8692 -24.372 66.9604)" class="st3" width="0.24" height="7.31"/>
				</g>
				<g>
					
						<rect x="112.93" y="79.25" transform="matrix(0.8691 -0.4946 0.4946 0.8691 -26.2541 66.7747)" class="st3" width="0.24" height="7.5"/>
				</g>
				<g>
					
						<rect x="111.94" y="83.78" transform="matrix(0.8692 -0.4945 0.4945 0.8692 -28.3632 66.7948)" class="st3" width="0.24" height="6.45"/>
				</g>
			</g>
		</g>
		<path class="st1" d="M34.79,106.73c1.59-0.23-8.35-12.12-11.84-10.75c-4.74,1.87-0.22,5.29,3.94,7.18
			c4.16,1.89-4.68-3.34-5.75-3.94c-3.72-2.07-8.46,1.93-1.74,3.99c6.72,2.06,0.73-1.39-2.44-2.05c-3.17-0.66-9.82-0.37-2.94,2.42
			c6.88,2.79,10.33,2.47,8.46,1.54c-1.87-0.93-16.22-4.02-13.43-0.87C11.85,107.4,25.29,108.09,34.79,106.73z"/>
		<path class="st4" d="M109.06,100.55c-8.98,0.6-36.8,2.35-53.76,2.46c-31.45,0.19-56.7,5.89-39.59,8.82
			c4.78,0.82-8.19,8.97,25.04,8c29.17-0.85,58.56-6.17,72.79-8.58c14.24-2.41,20.67-5.22,23.67-6.49
			C139.84,103.63,140.44,98.44,109.06,100.55z"/>
		<g>
			<path class="st5" d="M120.71,89.1c-3.89,1.27-6.68,4.35-7.77,8.02c3.04,2.33,7.12,3.17,11,1.91c3.89-1.27,6.68-4.35,7.77-8.02
				C128.67,88.68,124.6,87.84,120.71,89.1z"/>
			<g>
				<g>
					
						<rect x="113.21" y="94.04" transform="matrix(0.951 -0.3093 0.3093 0.951 -23.1353 42.3224)" class="st3" width="17.44" height="0.19"/>
				</g>
				<g>
					
						<rect x="127.97" y="91.85" transform="matrix(0.5162 -0.8565 0.8565 0.5162 -17.9734 154.8454)" class="st3" width="0.19" height="2.96"/>
				</g>
				<g>
					
						<rect x="125.44" y="92.61" transform="matrix(0.5161 -0.8565 0.8565 0.5161 -20.1367 153.2136)" class="st3" width="0.19" height="3.65"/>
				</g>
				<g>
					
						<rect x="123.66" y="92.93" transform="matrix(0.5162 -0.8565 0.8565 0.5162 -22.3298 152.4348)" class="st3" width="0.19" height="6.1"/>
				</g>
				<g>
					
						<rect x="120.76" y="93.89" transform="matrix(0.5162 -0.8564 0.8564 0.5162 -24.4879 150.366)" class="st3" width="0.19" height="5.93"/>
				</g>
				<g>
					
						<rect x="116.81" y="95.45" transform="matrix(0.5163 -0.8564 0.8564 0.5163 -26.6086 147.0936)" class="st3" width="0.19" height="3.3"/>
				</g>
				<g>
					
						<rect x="126.22" y="90.95" transform="matrix(0.3889 -0.9213 0.9213 0.3889 -5.8359 173.2896)" class="st3" width="2.96" height="0.19"/>
				</g>
				<g>
					
						<rect x="122.89" y="91.11" transform="matrix(0.3883 -0.9215 0.9215 0.3883 -7.4682 171.1523)" class="st3" width="4.61" height="0.19"/>
				</g>
				<g>
					
						<rect x="119.7" y="91.49" transform="matrix(0.3883 -0.9215 0.9215 0.3883 -9.4143 168.9903)" class="st3" width="5.78" height="0.19"/>
				</g>
				<g>
					
						<rect x="116.83" y="92.34" transform="matrix(0.3883 -0.9215 0.9215 0.3883 -11.906 166.9322)" class="st3" width="5.93" height="0.19"/>
				</g>
				<g>
					
						<rect x="114.26" y="93.64" transform="matrix(0.3883 -0.9215 0.9215 0.3883 -14.9321 164.9864)" class="st3" width="5.1" height="0.19"/>
				</g>
			</g>
		</g>
		<g>
			<g>
				<path class="st6" d="M122.54,76.9c0,0,1.02-0.24,1.6-1.03c0.21-0.29,0.34-0.96,0.04-1.18c-0.3-0.22-0.81-0.04-1.12,0.38
					C122.48,75.86,122.54,76.9,122.54,76.9z"/>
				<path class="st6" d="M121.46,78.14c0,0,0.45-0.8,0.28-1.63c-0.06-0.3-0.43-0.77-0.75-0.7c-0.32,0.07-0.51,0.5-0.42,0.94
					C120.74,77.59,121.46,78.14,121.46,78.14z"/>
				<path class="st6" d="M120.51,79.81c0,0,0.09-0.91-0.41-1.6c-0.18-0.25-0.71-0.53-0.98-0.34c-0.27,0.19-0.26,0.67,0,1.03
					C119.63,79.6,120.51,79.81,120.51,79.81z"/>
				<path class="st6" d="M121.46,78.2c0,0,0.68,0.5,1.53,0.51c0.31,0,0.84-0.21,0.85-0.48c0-0.27-0.38-0.49-0.83-0.5
					C122.15,77.72,121.46,78.2,121.46,78.2z"/>
				<path class="st6" d="M120.41,79.75c0,0,0.68,0.53,1.53,0.54c0.31,0,0.84-0.22,0.85-0.51c0-0.29-0.39-0.52-0.83-0.53
					C121.11,79.24,120.41,79.75,120.41,79.75z"/>
				<path class="st6" d="M119.38,82.12c0,0,0.52,0.53,1.17,0.53c0.24,0,0.65-0.22,0.65-0.51c0-0.29-0.29-0.52-0.63-0.53
					C119.91,81.61,119.38,82.12,119.38,82.12z"/>
				<path class="st6" d="M119.29,82.07c0,0,0.13-0.69-0.19-1.31c-0.11-0.22-0.48-0.52-0.69-0.41c-0.21,0.11-0.24,0.48-0.07,0.8
					C118.65,81.77,119.29,82.07,119.29,82.07z"/>
			</g>
			<g>
				<path class="st6" d="M113.24,90.57c-0.21-0.06-0.32-0.15-0.33-0.16l0.11-0.13l-0.06,0.07l0.06-0.07
					c0.01,0.01,0.32,0.26,0.88,0.11c0.64-0.16,1.33-0.74,2.06-1.72c1-1.34,2.04-3.39,3.09-6.1c1.22-3.15,2.42-4.55,3.21-5.48
					c0.2-0.24,0.38-0.44,0.51-0.63l0.14,0.1c-0.14,0.19-0.31,0.4-0.52,0.64c-0.78,0.92-1.97,2.3-3.18,5.43
					c-2.34,6.04-4.16,7.64-5.28,7.93C113.65,90.63,113.41,90.61,113.24,90.57z"/>
			</g>
		</g>
		<g>
			<path class="st7" d="M113.3,87.66c-3.72,3.4-5.53,8.03-5.23,12.33c4.25,0.68,9.03-0.69,12.76-4.09c3.72-3.4,5.53-8.03,5.23-12.33
				C121.8,82.88,117.02,84.25,113.3,87.66z"/>
			<g>
				<g>
					
						<rect x="105.89" y="91.97" transform="matrix(0.7383 -0.6745 0.6745 0.7383 -31.5667 102.7626)" class="st8" width="21.51" height="0.19"/>
				</g>
				<g>
					
						<rect x="122.92" y="86.2" transform="matrix(0.0453 -0.999 0.999 0.0453 29.6402 206.7994)" class="st8" width="0.19" height="3.38"/>
				</g>
				<g>
					
						<rect x="120.6" y="88.3" transform="matrix(0.0453 -0.999 0.999 0.0453 24.9352 206.8607)" class="st8" width="0.19" height="4.17"/>
				</g>
				<g>
					
						<rect x="119.29" y="89.44" transform="matrix(0.0453 -0.999 0.999 0.0453 21.1489 207.973)" class="st8" width="0.19" height="6.96"/>
				</g>
				<g>
					
						<rect x="116.49" y="92" transform="matrix(0.0453 -0.999 0.999 0.0453 16.0086 207.5323)" class="st8" width="0.19" height="6.78"/>
				</g>
				<g>
					
						<rect x="112.28" y="95.91" transform="matrix(0.0452 -0.999 0.999 0.0452 9.5994 205.6362)" class="st8" width="0.19" height="3.77"/>
				</g>
				<g>
					
						<rect x="120" y="85.69" transform="matrix(0.045 -0.999 0.999 0.045 30.5163 203.4975)" class="st8" width="3.38" height="0.19"/>
				</g>
				<g>
					
						<rect x="116.39" y="87.22" transform="matrix(0.0456 -0.999 0.999 0.0456 26.3714 202.2384)" class="st8" width="5.27" height="0.19"/>
				</g>
				<g>
					
						<rect x="113.05" y="89.03" transform="matrix(0.045 -0.999 0.999 0.045 22.0742 201.3488)" class="st8" width="6.6" height="0.19"/>
				</g>
				<g>
					
						<rect x="110.26" y="91.42" transform="matrix(0.0457 -0.999 0.999 0.0457 17.0353 200.8582)" class="st8" width="6.78" height="0.19"/>
				</g>
				<g>
					
						<rect x="108" y="94.37" transform="matrix(0.0456 -0.999 0.999 0.0456 11.4886 200.9528)" class="st8" width="5.82" height="0.19"/>
				</g>
			</g>
		</g>
		<path class="st9" d="M62.67,102.09c0.57-0.82-0.08-1.55-2.65-2.01c-2.8-0.5-5.49-0.31-7.72,0.13c5.29-2.36,11.48-5.72,5.95-6.3
			c-1.73-0.18-4.41,0.57-7.41,1.79c3.39-2.58,5.27-4.73,3.29-5.21c-1.84-0.44-5.7,1.63-9.82,4.4c2.37-2.36,3.77-4.44,2.77-5.47
			c-0.82-0.84-2.64,0.04-4.76,1.71c0.14-1.52-0.47-2.47-1.94-2.33c-1.38,0.13-2.55,1.86-3.42,3.96c-1.22-3.33-4.64-5.45-8.2-4.57
			c-4.17,1.04-1.1,9.03,0.63,12.84L62.67,102.09z"/>
		<g>
			<path class="st0" d="M35.08,109.3c-0.13-0.56-2.2-4.91-0.22-7.76c1.57-2.26,0.29-2.83-0.94-2.89c-1.23-0.06-2.42,0.44-2.46-1.11
				c-0.14-5.09-3.53-8.88-4.88-5.69c-0.73,1.72-2.71,0.57-2.78-0.72c-0.14-2.73-1.48-4.51-2.8-2.96c-1.3,1.52-2.59,1.84-3.06,0.73
				c-0.47-1.11-0.19-3.47-2.44-2.87c-0.89,0.24-1.75,2.38-1.03,4.14c0.41,1,2.53,3.71-0.21,3.51c-2.82-0.2-1.97,1.94-0.56,2.6
				c0.53,0.24,5.22,2.88,3.53,3.45c-1.99,0.67-1.54,2.43,1.06,3.08c1.18,0.29,3.94,0.15,3.61,1.15c-0.33,1-0.47,2.48,1.35,2.91
				C26.39,107.58,34.82,108.13,35.08,109.3z"/>
			<g>
				<path class="st3" d="M37.54,112.19c-2.56-3.32-5.08-5.24-9.26-8.42c-1.2-0.91-2.55-1.94-4.08-3.14
					c-6.89-5.39-9.04-12.84-9.06-12.91l0.23-0.06c0.02,0.07,2.15,7.45,8.97,12.79c1.53,1.2,2.88,2.23,4.08,3.14
					c4.19,3.19,6.72,5.12,9.31,8.47L37.54,112.19z"/>
			</g>
			<g>
				<path class="st3" d="M20.71,97.34c-0.57-1.45-0.42-3.22-0.19-4.44c0.25-1.32,0.63-2.32,0.64-2.33l0.22,0.09
					c-0.02,0.04-1.5,3.92-0.45,6.6L20.71,97.34z"/>
			</g>
			<g>
				<path class="st3" d="M21.23,97.91c-3-2.32-7.07-2.65-7.11-2.65l0.02-0.24c0.04,0,4.19,0.34,7.24,2.7L21.23,97.91z"/>
			</g>
			<g>
				<path class="st3" d="M27.04,102.57l-0.23-0.05c1.51-7.38,1.03-9.37,1.02-9.39l0.23-0.06C28.08,93.15,28.56,95.14,27.04,102.57z"
					/>
			</g>
			<g>
				<path class="st3" d="M16.97,101.29l-0.02-0.24c0.26-0.03,6.41-0.61,7.91-0.2l-0.06,0.23C23.34,100.68,17.04,101.28,16.97,101.29
					z"/>
			</g>
			<g>
				<path class="st3" d="M31.02,105.88c-2.94-1.36-8.01-0.29-8.06-0.28l-0.05-0.23c0.01,0,1.31-0.28,2.96-0.38
					c1.53-0.09,3.68-0.05,5.25,0.67L31.02,105.88z"/>
			</g>
		</g>
		<g>
			<g>
				<path class="st10" d="M23.86,101.18c1.23-13.63-6.25-22.38-6.33-22.47l-0.2,0.17c0.08,0.09,7.48,8.76,6.26,22.27L23.86,101.18z"
					/>
			</g>
			<path class="st10" d="M17.69,79.05c0,0-0.09-0.83-0.66-1.44c-0.21-0.22-0.72-0.44-0.93-0.25c-0.2,0.19-0.11,0.62,0.19,0.94
				C16.86,78.91,17.69,79.05,17.69,79.05z"/>
			<path class="st10" d="M18.49,80.24c0,0-0.5-0.56-1.24-0.72c-0.27-0.06-0.77,0.03-0.82,0.27c-0.05,0.23,0.25,0.5,0.63,0.58
				C17.8,80.54,18.49,80.24,18.49,80.24z"/>
			<path class="st10" d="M19.67,82.38c0,0-0.49-0.48-1.13-0.51c-0.23-0.01-0.64,0.17-0.65,0.42c-0.01,0.25,0.27,0.47,0.61,0.49
				C19.13,82.81,19.67,82.38,19.67,82.38z"/>
			<path class="st10" d="M18.37,80.22c0,0,0.63-0.28,0.89-0.85c0.1-0.21,0.08-0.65-0.15-0.76c-0.23-0.1-0.53,0.08-0.67,0.38
				C18.18,79.56,18.37,80.22,18.37,80.22z"/>
			<path class="st10" d="M23.71,94.54c0,0,0.7-0.05,1.22-0.51c0.19-0.17,0.39-0.59,0.23-0.77c-0.15-0.17-0.52-0.11-0.79,0.13
				C23.85,93.85,23.71,94.54,23.71,94.54z"/>
			<path class="st10" d="M19.8,82.3c0,0,0.69-0.37,1.01-1.08c0.12-0.26,0.13-0.78-0.11-0.89c-0.24-0.11-0.58,0.13-0.75,0.5
				C19.64,81.53,19.8,82.3,19.8,82.3z"/>
			<path class="st10" d="M21.04,84.59c0,0,0.74-0.27,1.02-0.88c0.1-0.22,0.05-0.71-0.23-0.84c-0.28-0.13-0.64,0.05-0.79,0.38
				C20.77,83.86,21.04,84.59,21.04,84.59z"/>
			<path class="st10" d="M20.85,84.63c0,0-0.44-0.63-1.12-0.78c-0.25-0.05-0.72,0.09-0.78,0.37c-0.06,0.28,0.2,0.58,0.56,0.66
				C20.18,85.03,20.85,84.63,20.85,84.63z"/>
			<path class="st10" d="M23.65,94.65c0,0-0.14-0.64-0.73-1.1c-0.21-0.17-0.74-0.34-0.93-0.2c-0.19,0.14-0.07,0.48,0.24,0.72
				C22.83,94.53,23.65,94.65,23.65,94.65z"/>
			<path class="st10" d="M22.69,89.35c0,0-0.39-0.32-1.05-0.33c-0.24,0-0.72,0.13-0.8,0.31c-0.08,0.17,0.16,0.32,0.51,0.33
				C22.01,89.66,22.69,89.35,22.69,89.35z"/>
			<path class="st10" d="M22.05,87.08c0,0,0.42-0.23,0.61-0.79c0.07-0.2,0.08-0.65-0.06-0.77c-0.14-0.12-0.35,0.04-0.45,0.33
				C21.96,86.41,22.05,87.08,22.05,87.08z"/>
			<path class="st10" d="M23.24,92.13c0,0-0.21-0.79-0.66-1.2c-0.16-0.15-0.51-0.2-0.59,0.05c-0.08,0.25,0.06,0.65,0.29,0.86
				C22.73,92.26,23.24,92.13,23.24,92.13z"/>
			<path class="st10" d="M22.66,89.46c0,0,0.88-0.37,1.36-0.97c0.17-0.22,0.25-0.65-0.02-0.72c-0.27-0.07-0.71,0.16-0.96,0.47
				C22.56,88.85,22.66,89.46,22.66,89.46z"/>
			<path class="st10" d="M23.37,92.22c0,0,0.83-0.35,1.25-0.91c0.15-0.2,0.18-0.6-0.09-0.66c-0.28-0.06-0.69,0.15-0.91,0.45
				C23.2,91.65,23.37,92.22,23.37,92.22z"/>
			<path class="st10" d="M11.61,84.31c0,0,0.7-0.05,1.22-0.51c0.19-0.17,0.39-0.59,0.23-0.77c-0.15-0.17-0.52-0.11-0.79,0.14
				C11.76,83.63,11.61,84.31,11.61,84.31z"/>
			<path class="st10" d="M23.8,99.35c0,0-0.14-0.64-0.73-1.1c-0.21-0.17-0.74-0.34-0.93-0.2c-0.19,0.14-0.07,0.47,0.24,0.72
				C22.97,99.24,23.8,99.35,23.8,99.35z"/>
			<path class="st10" d="M23.85,97.01c0,0-0.16-0.48-0.73-0.83c-0.2-0.13-0.69-0.25-0.85-0.14c-0.16,0.11-0.03,0.36,0.27,0.54
				C23.1,96.93,23.85,97.01,23.85,97.01z"/>
			<path class="st10" d="M19.08,87.64c0,0-0.46-0.6-1.01-0.84c-0.2-0.09-0.54-0.05-0.54,0.18c0.01,0.23,0.27,0.52,0.56,0.65
				C18.64,87.87,19.08,87.64,19.08,87.64z"/>
			<path class="st10" d="M23.84,99.44c0,0,0.92-0.25,1.47-0.79c0.2-0.2,0.33-0.61,0.07-0.72c-0.26-0.1-0.73,0.07-1.02,0.35
				C23.81,98.82,23.84,99.44,23.84,99.44z"/>
			<path class="st10" d="M23.88,97.06c0,0,0.84-0.23,1.27-0.71c0.16-0.17,0.21-0.54-0.05-0.63c-0.27-0.09-0.68,0.07-0.91,0.32
				C23.75,96.52,23.88,97.06,23.88,97.06z"/>
			<path class="st10" d="M22.03,87.26c0,0-0.38-0.52-1.14-0.8c-0.27-0.1-0.85-0.15-0.98,0.01c-0.13,0.16,0.12,0.42,0.52,0.57
				C21.18,87.32,22.03,87.26,22.03,87.26z"/>
		</g>
		<g>
			<path class="st11" d="M27.55,97.44c1.14,4.21,3.98,7.44,7.41,8.92c2.21-3,3.05-7.22,1.91-11.43c-1.14-4.21-3.98-7.44-7.41-8.92
				C27.25,89,26.41,93.22,27.55,97.44z"/>
			<g>
				<g>
					
						<rect x="32.18" y="87.3" transform="matrix(0.9655 -0.2605 0.2605 0.9655 -24.0533 11.7411)" class="st8" width="0.17" height="18.62"/>
				</g>
				<g>
					
						<rect x="30.13" y="89.97" transform="matrix(0.498 -0.8672 0.8672 0.498 -62.2365 72.5966)" class="st8" width="2.92" height="0.17"/>
				</g>
				<g>
					
						<rect x="30.78" y="92.74" transform="matrix(0.4981 -0.8671 0.8671 0.4981 -64.1374 74.8451)" class="st8" width="3.6" height="0.17"/>
				</g>
				<g>
					
						<rect x="31" y="94.76" transform="matrix(0.4986 -0.8668 0.8668 0.4986 -65.1557 77.0359)" class="st8" width="6.03" height="0.17"/>
				</g>
				<g>
					
						<rect x="31.87" y="97.89" transform="matrix(0.4986 -0.8668 0.8668 0.4986 -67.4807 79.2954)" class="st8" width="5.86" height="0.17"/>
				</g>
				<g>
					
						<rect x="33.35" y="102.09" transform="matrix(0.4982 -0.8671 0.8671 0.4982 -71.0336 81.6026)" class="st8" width="3.26" height="0.17"/>
				</g>
				<g>
					
						<rect x="29.36" y="88.78" transform="matrix(0.4985 -0.8669 0.8669 0.4985 -63.4586 70.7768)" class="st8" width="0.17" height="2.92"/>
				</g>
				<g>
					
						<rect x="29.48" y="90.62" transform="matrix(0.4985 -0.8669 0.8669 0.4985 -65.7031 72.2125)" class="st8" width="0.17" height="4.56"/>
				</g>
				<g>
					
						<rect x="29.81" y="92.82" transform="matrix(0.4985 -0.8669 0.8669 0.4985 -67.9472 73.8944)" class="st8" width="0.17" height="5.71"/>
				</g>
				<g>
					
						<rect x="30.57" y="95.77" transform="matrix(0.4984 -0.8669 0.8669 0.4984 -70.1916 76.0795)" class="st8" width="0.17" height="5.86"/>
				</g>
				<g>
					
						<rect x="31.75" y="99.45" transform="matrix(0.4985 -0.8669 0.8669 0.4985 -72.4312 78.74)" class="st8" width="0.17" height="5.04"/>
				</g>
			</g>
		</g>
		<g>
			<path class="st5" d="M22.33,103.77c3.24,2.93,7.37,4.1,11.05,3.49c0.24-3.72-1.34-7.72-4.58-10.65
				c-3.24-2.93-7.37-4.1-11.05-3.49C17.52,96.84,19.1,100.85,22.33,103.77z"/>
			<g>
				<g>
					
						<rect x="25.77" y="91.22" transform="matrix(0.6711 -0.7414 0.7414 0.6711 -66.0284 52.2348)" class="st8" width="0.17" height="18.62"/>
				</g>
				<g>
					
						<rect x="21.65" y="93.92" transform="matrix(0.9988 -0.0498 0.0498 0.9988 -4.72 1.2)" class="st8" width="0.17" height="2.92"/>
				</g>
				<g>
					
						<rect x="23.99" y="95.37" transform="matrix(0.9988 -0.0498 0.0498 0.9988 -4.8101 1.3196)" class="st8" width="0.17" height="3.6"/>
				</g>
				<g>
					
						<rect x="26.28" y="95.08" transform="matrix(0.9988 -0.0497 0.0497 0.9988 -4.8398 1.4307)" class="st8" width="0.17" height="6.03"/>
				</g>
				<g>
					
						<rect x="28.64" y="97.38" transform="matrix(0.9988 -0.0497 0.0497 0.9988 -4.9543 1.5531)" class="st8" width="0.17" height="5.86"/>
				</g>
				<g>
					
						<rect x="31.06" y="102.1" transform="matrix(0.9988 -0.0498 0.0498 0.9988 -5.1302 1.6806)" class="st8" width="0.17" height="3.26"/>
				</g>
				<g>
					
						<rect x="18.57" y="96.61" transform="matrix(0.9988 -0.0499 0.0499 0.9988 -4.8027 1.1208)" class="st8" width="2.92" height="0.17"/>
				</g>
				<g>
					
						<rect x="19.29" y="98.78" transform="matrix(0.9988 -0.0499 0.0499 0.9988 -4.9092 1.2002)" class="st8" width="4.56" height="0.17"/>
				</g>
				<g>
					
						<rect x="20.5" y="100.94" transform="matrix(0.9988 -0.0499 0.0499 0.9988 -5.0151 1.2919)" class="st8" width="5.71" height="0.17"/>
				</g>
				<g>
					
						<rect x="22.69" y="103.08" transform="matrix(0.9988 -0.0499 0.0499 0.9988 -5.1188 1.4082)" class="st8" width="5.86" height="0.17"/>
				</g>
				<g>
					
						<rect x="25.87" y="105.19" transform="matrix(0.9988 -0.05 0.05 0.9988 -5.224 1.55)" class="st8" width="5.04" height="0.17"/>
				</g>
			</g>
		</g>
		<g>
			<path class="st5" d="M22.09,109.74l0.11,1.34c-0.98,0.45-1.97,0.78-2.91,0.98c-0.36-0.87-0.62-1.8-0.75-2.77
				c-0.65-4.76,5.61-9.06,11.09-5.95c-0.49,2-2.11,4.26-4.61,6.09c-0.65,0.47-1.32,0.89-2,1.25L22.09,109.74z"/>
			<g>
				<g>
					<path class="st3" d="M19.38,112.07l-0.17-0.04c0-0.02,0.46-2.11,1.96-4.22c1.39-1.95,3.98-4.33,8.46-4.57l0.01,0.17
						c-4.41,0.24-6.96,2.58-8.33,4.5C19.82,110,19.38,112.05,19.38,112.07z"/>
				</g>
				<g>
					
						<rect x="18.64" y="109.71" transform="matrix(0.974 -0.2268 0.2268 0.974 -24.3904 7.2677)" class="st3" width="1.6" height="0.17"/>
				</g>
				<g>
					
						<rect x="18.52" y="108.14" transform="matrix(0.9916 -0.1295 0.1295 0.9916 -13.8503 3.4777)" class="st3" width="2.59" height="0.17"/>
				</g>
				<g>
					
						<rect x="18.83" y="106.66" transform="matrix(0.9988 -0.0499 0.0499 0.9988 -5.3001 1.157)" class="st3" width="3.38" height="0.17"/>
				</g>
				<g>
					
						<rect x="21.52" y="103.48" transform="matrix(0.1097 -0.994 0.994 0.1097 -85.4635 115.2569)" class="st3" width="0.17" height="3.72"/>
				</g>
				<g>
					
						<rect x="22.75" y="102.47" transform="matrix(0.2276 -0.9738 0.9738 0.2276 -83.9365 102.8049)" class="st3" width="0.17" height="3.68"/>
				</g>
				<g>
					
						<rect x="24.53" y="101.59" transform="matrix(0.313 -0.9498 0.9498 0.313 -81.2985 94.4207)" class="st3" width="0.17" height="3.63"/>
				</g>
				<g>
					
						<rect x="26.46" y="101.29" transform="matrix(0.3688 -0.9295 0.9295 0.3688 -78.9089 89.6419)" class="st3" width="0.17" height="3.26"/>
				</g>
				<g>
					
						<rect x="20.45" y="109.57" transform="matrix(0.9326 -0.3609 0.3609 0.9326 -38.5387 14.8693)" class="st3" width="0.17" height="2.08"/>
				</g>
				<g>
					
						<rect x="21.5" y="107.99" transform="matrix(0.9543 -0.2988 0.2988 0.9543 -31.7632 11.4559)" class="st3" width="0.17" height="3.23"/>
				</g>
				<g>
					
						<rect x="22.84" y="106.52" transform="matrix(0.9306 -0.3661 0.3661 0.9306 -38.1215 15.925)" class="st3" width="0.17" height="3.92"/>
				</g>
				<g>
					
						<rect x="24.23" y="105.35" transform="matrix(0.9095 -0.4157 0.4157 0.9095 -42.4591 19.8333)" class="st3" width="0.17" height="4.14"/>
				</g>
				<g>
					
						<rect x="25.43" y="104.52" transform="matrix(0.8948 -0.4465 0.4465 0.8948 -44.873 22.6008)" class="st3" width="0.17" height="3.97"/>
				</g>
				<g>
					
						<rect x="26.93" y="103.83" transform="matrix(0.91 -0.4147 0.4147 0.91 -41.2994 20.6987)" class="st3" width="0.17" height="3.26"/>
				</g>
				<g>
					
						<rect x="28.31" y="103.47" transform="matrix(0.945 -0.327 0.327 0.945 -32.6029 15.028)" class="st3" width="0.17" height="2.03"/>
				</g>
			</g>
		</g>
		<g>
			<path class="st12" d="M126.04,102.51l0.69,1.91c1.64,0,3.2-0.17,4.63-0.5c-0.06-1.43-0.3-2.87-0.73-4.29
				c-2.12-6.96-13.45-8.91-19.03-1.16c1.94,2.45,5.61,4.52,10.21,5.45c1.19,0.24,2.38,0.39,3.54,0.46L126.04,102.51z"/>
			<g>
				<g>
					<path class="st7" d="M131.26,104c-0.02-0.03-1.94-2.57-5.3-4.5c-3.1-1.77-8.09-3.37-14.31-0.9l-0.1-0.24
						c6.31-2.51,11.39-0.88,14.54,0.93c3.41,1.95,5.35,4.54,5.37,4.56L131.26,104z"/>
				</g>
				<g>
					
						<rect x="128.52" y="100.77" transform="matrix(0.9794 -0.2018 0.2018 0.9794 -17.6909 28.2508)" class="st7" width="2.42" height="0.26"/>
				</g>
				<g>
					
						<rect x="126.26" y="98.86" transform="matrix(0.9548 -0.2972 0.2972 0.9548 -23.6251 42.579)" class="st7" width="3.93" height="0.26"/>
				</g>
				<g>
					
						<rect x="123.74" y="97.27" transform="matrix(0.9283 -0.3719 0.3719 0.9283 -27.163 53.9593)" class="st7" width="5.12" height="0.26"/>
				</g>
				<g>
					
						<rect x="121.1" y="96.02" transform="matrix(0.857 -0.5154 0.5154 0.857 -31.8287 77.6135)" class="st7" width="5.63" height="0.26"/>
				</g>
				<g>
					
						<rect x="118.79" y="95.39" transform="matrix(0.7894 -0.6139 0.6139 0.7894 -33.0302 94.7506)" class="st7" width="5.58" height="0.26"/>
				</g>
				<g>
					
						<rect x="115.81" y="95.27" transform="matrix(0.7316 -0.6817 0.6817 0.7316 -33.2145 106.4233)" class="st7" width="5.5" height="0.26"/>
				</g>
				<g>
					
						<rect x="113.12" y="95.82" transform="matrix(0.69 -0.7238 0.7238 0.69 -33.6169 113.4162)" class="st7" width="4.94" height="0.26"/>
				</g>
				<g>
					
						<rect x="128.6" y="101.15" transform="matrix(0.9981 -0.0623 0.0623 0.9981 -6.1482 8.2171)" class="st7" width="0.26" height="3.15"/>
				</g>
				<g>
					
						<rect x="126.53" y="99.55" transform="matrix(0.9918 -0.1277 0.1277 0.9918 -11.9845 17.0034)" class="st7" width="0.26" height="4.89"/>
				</g>
				<g>
					
						<rect x="123.96" y="98.34" transform="matrix(0.9984 -0.0568 0.0568 0.9984 -5.5507 7.2073)" class="st7" width="0.26" height="5.93"/>
				</g>
				<g>
					
						<rect x="121.39" y="97.6" transform="matrix(1 -2.800128e-03 2.800128e-03 1 -0.2816 0.3407)" class="st7" width="0.26" height="6.28"/>
				</g>
				<g>
					
						<rect x="116.28" y="100.11" transform="matrix(0.0312 -0.9995 0.9995 0.0312 15.3791 216.3396)" class="st7" width="6.02" height="0.26"/>
				</g>
				<g>
					
						<rect x="116.42" y="97.27" transform="matrix(1 -4.086968e-03 4.086968e-03 1 -0.4067 0.4772)" class="st7" width="0.26" height="4.94"/>
				</g>
				<g>
					
						<rect x="113.91" y="97.73" transform="matrix(0.9952 -0.0983 0.0983 0.9952 -9.2034 11.6871)" class="st7" width="0.26" height="3.08"/>
				</g>
			</g>
		</g>
		<g>
			<g class="st13">
				<g>
					<polygon class="st14" points="117.16,68.2 116.92,102.96 94.76,105.36 95.01,70.6 					"/>
				</g>
				<g>
					<polygon class="st12" points="94.76,105.36 88.26,100.39 88.5,65.64 95.01,70.6 					"/>
				</g>
				<g>
					<polygon class="st15" points="95.01,70.6 88.5,65.64 110.65,63.23 117.16,68.2 					"/>
				</g>
			</g>
		</g>
		<g>
			<path class="st11" d="M106.31,106.13c0.49-0.71-0.07-1.34-2.29-1.74c-2.42-0.43-4.76-0.26-6.68,0.12
				c4.58-2.04,9.94-4.95,5.15-5.45c-1.49-0.16-3.82,0.49-6.42,1.55c2.93-2.23,4.56-4.1,2.84-4.51c-1.6-0.38-4.93,1.41-8.5,3.81
				c2.05-2.04,3.26-3.84,2.4-4.73c-0.71-0.73-2.29,0.03-4.12,1.48c0.12-1.32-0.41-2.13-1.68-2.01c-1.2,0.11-2.21,1.61-2.96,3.43
				c-1.05-2.88-4.02-4.72-7.09-3.95c-3.61,0.9-0.95,7.82,0.55,11.11L106.31,106.13z"/>
			<g>
				<g>
					<path class="st7" d="M88.7,103.27l-0.16-0.07c2.92-6.76,6.12-11.18,8.3-13.7c2.36-2.73,4.05-3.88,4.07-3.89l0.09,0.14
						C100.94,85.8,94.26,90.39,88.7,103.27z"/>
				</g>
				<g>
					<path class="st7" d="M88.02,101.67l-0.17-0.03c1.6-7.97,6.48-14.42,6.53-14.48l0.14,0.1C94.47,87.32,89.61,93.73,88.02,101.67z
						"/>
				</g>
				<g>
					<path class="st7" d="M90.96,102.79l-0.17-0.03c0.79-3.83,2.71-6.09,4.19-7.31c1.6-1.32,3.05-1.75,3.06-1.75l0.05,0.16
						C98.04,93.87,92.45,95.56,90.96,102.79z"/>
				</g>
				<path class="st7" d="M101.83,84.7c1.02,0.91,1.54,1.98,1.17,2.39c-0.37,0.41-1.49,0.01-2.51-0.9c-1.02-0.91-1.54-1.98-1.17-2.39
					C99.7,83.39,100.82,83.79,101.83,84.7z"/>
				<path class="st8" d="M101.38,85.21c0.32,0.29,0.49,0.63,0.37,0.76c-0.12,0.13-0.47,0-0.8-0.29c-0.32-0.29-0.49-0.63-0.37-0.76
					C100.7,84.79,101.06,84.92,101.38,85.21z"/>
				<path class="st7" d="M94.81,86.8c0.42,0.38,0.64,0.83,0.49,1c-0.15,0.17-0.62,0-1.04-0.38c-0.42-0.38-0.64-0.83-0.49-1
					C93.92,86.25,94.39,86.42,94.81,86.8z"/>
				<path class="st8" d="M94.62,87.01c0.13,0.12,0.2,0.26,0.16,0.32c-0.05,0.05-0.2,0-0.33-0.12c-0.13-0.12-0.2-0.26-0.15-0.32
					C94.34,86.84,94.49,86.89,94.62,87.01z"/>
				<path class="st7" d="M98.53,93.48c0.4,0.61,0.52,1.24,0.27,1.41c-0.25,0.16-0.77-0.21-1.17-0.82c-0.4-0.61-0.52-1.24-0.27-1.41
					C97.6,92.5,98.13,92.87,98.53,93.48z"/>
				<path class="st8" d="M98.22,93.68c0.13,0.2,0.16,0.4,0.09,0.45c-0.08,0.05-0.25-0.06-0.37-0.26c-0.13-0.19-0.17-0.39-0.09-0.45
					C97.92,93.37,98.09,93.49,98.22,93.68z"/>
			</g>
			<path class="st3" d="M93.07,100.86c0.02-0.01,0.04-0.03,0.06-0.04c-0.01,0-0.02-0.01-0.03-0.01c-0.26-0.11-0.43-0.32-0.37-0.46
				c0.06-0.14,0.32-0.16,0.59-0.04c0.02,0.01,0.04,0.02,0.06,0.03c0-0.01,0-0.02,0-0.03c-0.03-0.29,0.06-0.53,0.21-0.55
				c0.15-0.02,0.3,0.2,0.33,0.48c0,0.02,0,0.05,0.01,0.07c0.01-0.01,0.02-0.01,0.03-0.02c0.23-0.17,0.49-0.21,0.58-0.09
				c0.09,0.12-0.02,0.36-0.25,0.53c-0.02,0.01-0.04,0.03-0.06,0.04c0.01,0,0.02,0.01,0.03,0.01c0.26,0.11,0.43,0.32,0.37,0.45
				c-0.06,0.14-0.32,0.16-0.58,0.05c-0.02-0.01-0.04-0.02-0.07-0.03c0,0.01,0,0.02,0,0.03c0.03,0.29-0.06,0.53-0.21,0.55
				c-0.15,0.02-0.3-0.2-0.33-0.48c0-0.02,0-0.05-0.01-0.07c-0.01,0.01-0.02,0.01-0.03,0.02c-0.23,0.17-0.49,0.21-0.58,0.09
				C92.72,101.27,92.84,101.04,93.07,100.86z M93.7,101.08c0.15-0.02,0.26-0.16,0.25-0.31c-0.02-0.15-0.16-0.26-0.31-0.25
				c-0.15,0.02-0.26,0.16-0.25,0.31C93.41,100.99,93.55,101.1,93.7,101.08z"/>
		</g>
		<g>
			<g class="st13">
				<g>
					<polygon class="st14" points="86.45,85.11 86.39,107.28 64.24,109.68 64.3,87.51 					"/>
				</g>
				<g>
					<polygon class="st12" points="64.24,109.68 57.73,104.72 57.79,82.55 64.3,87.51 					"/>
				</g>
				<g>
					<polygon class="st15" points="64.3,87.51 57.79,82.55 79.94,80.14 86.45,85.11 					"/>
				</g>
			</g>
		</g>
		<g>
			<g class="st13">
				<g>
					<polygon class="st14" points="55.85,100.57 55.98,111.07 33.82,113.47 33.69,102.97 					"/>
				</g>
				<g>
					<polygon class="st12" points="33.82,113.47 27.32,108.5 27.19,98 33.69,102.97 					"/>
				</g>
				<g>
					<polygon class="st15" points="33.69,102.97 27.19,98 49.34,95.6 55.85,100.57 					"/>
				</g>
			</g>
		</g>
	</g>
	<g>
		<g>
			<polygon class="st16" points="104.48,51.73 107.05,52.32 107.19,52.4 104.62,51.81 			"/>
		</g>
		<g>
			<polygon class="st17" points="104.66,51.71 107.23,52.3 107.19,52.4 104.62,51.81 			"/>
		</g>
		<g>
			<polygon class="st18" points="104.66,51.71 107.23,52.3 108.07,52.79 105.49,52.2 			"/>
		</g>
		<g>
			<path class="st19" d="M106.13,49.9c0.47,0.11,1.09,0.25,1.55,0.36c-0.28-0.06-0.53-0.12-0.94-0.18c-0.4-0.06-0.74-0.1-0.95-0.12
				c-0.12-0.01-0.49-0.04-0.96-0.05c-0.42-0.01-0.67,0-0.97,0.01C104.61,49.74,105.38,49.73,106.13,49.9z"/>
		</g>
		<path class="st17" d="M107.51,50.45c-3.11-1.8-7.09,0.14-8.89,4.35c-1.8,4.21-0.73,9.08,2.37,10.88c3.11,1.8,7.09-0.14,8.89-4.35
			C111.68,57.13,110.62,52.26,107.51,50.45z"/>
		<g>
			<path class="st20" d="M98.97,55.21c1.8-4.21,5.78-6.15,8.89-4.35c0.47,0.27,0.9,0.62,1.27,1.02c-0.45-0.58-0.99-1.07-1.62-1.43
				c-3.11-1.8-7.09,0.14-8.89,4.35c-1.52,3.57-0.99,7.61,1.1,9.86C97.93,62.36,97.53,58.57,98.97,55.21z"/>
		</g>
		<g>
			<path class="st17" d="M106.13,49.9c0.86,0.2,1.72,0.39,2.57,0.59c0.47,0.11,0.94,0.29,1.38,0.55l-2.57-0.59
				C107.06,50.19,106.6,50.01,106.13,49.9z"/>
		</g>
		<g>
			<path class="st19" d="M108.18,48.87c3.75,2.18,5.04,8.06,2.87,13.14c-2.17,5.08-6.97,7.43-10.73,5.25
				c-3.75-2.18-5.04-8.06-2.87-13.14C99.63,49.05,104.43,46.7,108.18,48.87z M101,65.69c3.11,1.8,7.09-0.14,8.89-4.35
				c1.8-4.21,0.73-9.08-2.38-10.88c-3.11-1.8-7.09,0.14-8.89,4.35C96.83,59.01,97.89,63.88,101,65.69L101,65.69z"/>
		</g>
		<g>
			<path class="st21" d="M106.52,48.21c0.86,0.2,1.72,0.39,2.57,0.59c0.57,0.13,1.13,0.35,1.67,0.66l-2.57-0.59
				C107.65,48.56,107.09,48.34,106.52,48.21z"/>
		</g>
		<g>
			<path class="st20" d="M104.57,68.52c-0.86-0.2-1.72-0.39-2.57-0.59c3.41,0.78,7.2-1.57,9.06-5.91
				c2.17-5.08,0.89-10.96-2.87-13.14l2.57,0.59c3.75,2.18,5.04,8.06,2.87,13.14C111.77,66.95,107.98,69.3,104.57,68.52z"/>
		</g>
		<path class="st17" d="M111.93,65.44c0.66-0.81,1.24-1.76,1.7-2.84c1.01-2.37,1.27-4.92,0.88-7.18l-2.53-0.32
			c0.33,2.19,0.05,4.63-0.92,6.91c-0.51,1.18-1.15,2.22-1.9,3.08L111.93,65.44z"/>
		<g>
			<path class="st20" d="M106.97,52.65l-0.54,1.27c0.35,0.3,0.55,0.71,0.62,1.23c0.07,0.52-0.02,1.09-0.25,1.71l-0.85-0.49
				c0.13-0.35,0.16-0.67,0.09-0.97c-0.07-0.29-0.23-0.51-0.48-0.65c-0.27-0.16-0.53-0.17-0.79-0.04c-0.26,0.13-0.46,0.38-0.62,0.75
				c-0.06,0.14-0.1,0.27-0.12,0.4c-0.02,0.13-0.02,0.25,0,0.38c0.04,0.26,0.23,0.55,0.56,0.89c0.2,0.2,0.35,0.37,0.44,0.5
				c0.33,0.45,0.53,0.93,0.58,1.45c0.05,0.52-0.04,1.06-0.28,1.6c-0.3,0.7-0.68,1.21-1.16,1.54c-0.47,0.33-0.94,0.41-1.4,0.25
				l-0.65,1.53l-0.79-0.46l0.63-1.47c-0.44-0.36-0.7-0.85-0.78-1.47c-0.08-0.62,0.02-1.28,0.32-1.99l0.82,0.47
				c-0.19,0.48-0.24,0.9-0.16,1.24c0.08,0.34,0.28,0.61,0.62,0.81c0.31,0.18,0.61,0.2,0.9,0.05c0.29-0.15,0.53-0.44,0.71-0.86
				c0.06-0.15,0.11-0.3,0.14-0.44c0.03-0.14,0.05-0.27,0.05-0.38c-0.01-0.39-0.2-0.77-0.57-1.17c-0.06-0.06-0.11-0.11-0.14-0.15
				c-0.46-0.5-0.74-1-0.84-1.52c-0.1-0.51-0.03-1.06,0.22-1.64c0.27-0.63,0.62-1.09,1.04-1.37c0.42-0.28,0.87-0.35,1.34-0.21
				l0.54-1.26L106.97,52.65z"/>
		</g>
		<g>
			<path class="st19" d="M106.49,52.44l-0.54,1.27c0.35,0.3,0.55,0.71,0.62,1.23c0.07,0.52-0.02,1.09-0.25,1.71l-0.85-0.49
				c0.13-0.35,0.16-0.68,0.09-0.97c-0.07-0.29-0.23-0.51-0.48-0.66c-0.27-0.16-0.53-0.17-0.79-0.04c-0.26,0.13-0.46,0.38-0.62,0.75
				c-0.06,0.14-0.1,0.27-0.12,0.4c-0.02,0.13-0.02,0.25,0,0.38c0.04,0.26,0.23,0.55,0.56,0.89c0.2,0.2,0.35,0.37,0.44,0.5
				c0.33,0.45,0.53,0.93,0.58,1.45c0.05,0.52-0.04,1.06-0.28,1.6c-0.3,0.7-0.68,1.21-1.16,1.54c-0.47,0.33-0.94,0.41-1.4,0.25
				l-0.65,1.53l-0.79-0.46l0.63-1.47c-0.44-0.36-0.7-0.85-0.78-1.47c-0.08-0.62,0.02-1.28,0.32-1.99l0.82,0.47
				c-0.19,0.48-0.24,0.9-0.16,1.24c0.08,0.34,0.28,0.61,0.62,0.81c0.31,0.18,0.61,0.2,0.9,0.05c0.29-0.15,0.53-0.44,0.71-0.86
				c0.06-0.15,0.11-0.3,0.14-0.44c0.03-0.14,0.05-0.27,0.05-0.38c-0.01-0.39-0.2-0.77-0.57-1.17c-0.06-0.06-0.11-0.11-0.14-0.15
				c-0.46-0.5-0.74-1-0.84-1.52c-0.1-0.51-0.03-1.05,0.22-1.64c0.27-0.63,0.62-1.09,1.04-1.37c0.42-0.28,0.87-0.35,1.34-0.21
				l0.54-1.26L106.49,52.44z"/>
		</g>
	</g>
</g>
<g>
	
		<rect x="48.48" y="74.47" transform="matrix(0.2166 -0.9762 0.9762 0.2166 -33.0267 113.8224)" class="st14" width="11.87" height="6.05"/>
	<g>
		<path class="st22" d="M55.71,71.64"/>
	</g>
	<path class="st12" d="M76.29,43.87c-2.85-4.49-7.29-7.59-12.5-8.74c-5.18-1.14-10.5-0.2-14.96,2.64
		c-9.25,5.89-11.99,18.21-6.1,27.46c2.86,4.49,7.3,7.59,12.51,8.74c5.18,1.14,10.49,0.2,14.95-2.64c4.48-2.85,7.58-7.28,8.73-12.47
		C80.07,53.67,79.14,48.34,76.29,43.87z M68,67.82c-3.57,2.28-7.79,3.03-11.9,2.11c-8.48-1.88-13.85-10.31-11.96-18.79
		c0.91-4.09,3.36-7.59,6.9-9.85c3.56-2.28,7.78-3.02,11.89-2.11c4.1,0.91,7.61,3.36,9.87,6.92c2.26,3.55,3.01,7.77,2.1,11.87
		C73.99,62.06,71.54,65.56,68,67.82z"/>
	
		<rect x="42.58" y="83.29" transform="matrix(0.217 -0.9762 0.9762 0.217 -45.7658 120.0542)" class="st12" width="18.75" height="10.53"/>
	
		<rect x="44.12" y="85.22" transform="matrix(0.217 -0.9762 0.9762 0.217 -47.9807 121.1447)" class="st14" width="14.81" height="10.53"/>
	<g>
		
			<rect x="50.04" y="87.29" transform="matrix(0.2172 -0.9761 0.9761 0.2172 -43.6373 121.5855)" class="st3" width="7.89" height="1.43"/>
	</g>
	<path class="st12" d="M53.46,100.49c-2.68,1.7-6.23,0.91-7.93-1.76c0.14-0.63,0.28-1.27,0.42-1.9c2.64,0.59,5.29,1.18,7.93,1.76
		C53.74,99.22,53.6,99.86,53.46,100.49z"/>
</g>
</svg>
