<?xml version="1.0" encoding="utf-8"?>
<!-- Generator: Adobe Illustrator 23.0.1, SVG Export Plug-In . SVG Version: 6.00 Build 0)  -->
<svg version="1.1" id="Layer_1" xmlns="http://www.w3.org/2000/svg" xmlns:xlink="http://www.w3.org/1999/xlink" x="0px" y="0px"
	 viewBox="0 0 44 44" style="enable-background:new 0 0 44 44;" xml:space="preserve">
<style type="text/css">
	.st0{fill:url(#SVGID_1_);}
	.st1{fill:url(#SVGID_2_);}
	.st2{fill:url(#SVGID_3_);}
</style>
<g id="launch">
</g>
<g id="bulb">
</g>
<g id="megaphone">
</g>
<g id="reward">
	<g>
		
			<linearGradient id="SVGID_1_" gradientUnits="userSpaceOnUse" x1="6.9622" y1="23.9439" x2="37.0378" y2="23.9439" gradientTransform="matrix(1 0 0 -1 0 46)">
			<stop  offset="0" style="stop-color:#1A9AF5"/>
			<stop  offset="1" style="stop-color:#1689F9"/>
		</linearGradient>
		<path class="st0" d="M36.4,14c0.6-0.9,0.7-2,0.5-3c-0.3-1-1-1.9-1.9-2.4c-0.6-0.3-1-1-1-1.7c0-1.1-0.4-2.1-1.1-2.9
			c-0.8-0.6-1.8-1-2.9-1c-0.7,0-1.3-0.3-1.7-1C27.9,1.1,27,0.4,26,0.1S23.9,0,23,0.6c-0.6,0.4-1.4,0.4-2,0c-0.9-0.6-2-0.7-3-0.5
			c-1,0.3-1.9,1-2.4,1.9c-0.3,0.6-1,1-1.7,1c-1.1,0-2.1,0.4-2.9,1.1c-0.6,0.8-1,1.8-1,2.9c0,0.7-0.3,1.3-1,1.7
			C8.1,9.1,7.4,10,7.1,11S7,13.1,7.6,14c0.4,0.6,0.4,1.4,0,2c-0.6,0.9-0.7,2-0.5,3c0.3,1,1,1.9,1.9,2.4c0.6,0.3,1,1,1,1.7
			c0,1.1,0.4,2.1,1.1,2.9c0.8,0.8,1.8,1.2,2.9,1.1l0,0v16c0,0.4,0.2,0.7,0.5,0.9s0.7,0.2,1,0l6.5-3.7l6.5,3.7c0.2,0,0.3,0,0.5,0
			s0.3,0,0.5-0.1c0.3-0.2,0.5-0.5,0.5-0.9V31c0-0.6-0.4-1-1-1s-1,0.4-1,1v10.3l-5-2.9V34c0-0.6-0.4-1-1-1s-1,0.4-1,1v4.4l-5,2.9
			V28.5c0.5,0.7,1.2,1.1,2,1.4c1,0.3,2.1,0.1,3-0.5c0.6-0.4,1.3-0.4,1.9,0s1.3,0.6,2,0.6c0.3,0,0.7,0,1-0.1c1-0.3,1.9-1,2.4-1.9
			c0.3-0.6,1-1,1.7-1c1.1,0,2.1-0.4,2.9-1.1c0.8-0.8,1.2-1.8,1.1-2.9c0-0.7,0.3-1.3,1-1.7c0.9-0.5,1.6-1.4,1.9-2.4
			c0.3-1,0.1-2.1-0.5-3C36,15.4,36,14.6,36.4,14z M34.7,17c0.3,0.4,0.4,0.9,0.2,1.4c-0.1,0.5-0.5,0.9-0.9,1.1
			c-1.3,0.7-2.1,2.1-2,3.5c0,0.5-0.2,1-0.5,1.3c-0.4,0.4-0.8,0.6-1.3,0.5c-1.5-0.1-2.9,0.7-3.5,2c-0.2,0.5-0.6,0.8-1.1,0.9
			s-1,0.1-1.4-0.2c-0.6-0.4-1.3-0.6-2-0.6s-1.4,0.2-2,0.6c-0.4,0.3-0.9,0.4-1.4,0.2c-0.5-0.1-0.9-0.5-1.1-0.9
			c-0.7-1.3-2.1-2.1-3.5-2c-0.5,0-1-0.2-1.3-0.5c-0.4-0.4-0.5-0.8-0.5-1.3c0.1-1.5-0.7-2.9-2-3.5c-0.5-0.2-0.8-0.6-0.9-1.1
			C8.9,18,9,17.5,9.3,17c0.8-1.2,0.8-2.8,0-4.1C9,12.5,8.9,12,9.1,11.5c0.1-0.5,0.5-0.9,0.9-1.1c1.3-0.7,2.1-2.1,2-3.5
			c0-0.5,0.2-1,0.5-1.3C12.9,5.2,13.4,5,13.9,5c1.5,0.1,2.9-0.7,3.5-2c0.2-0.5,0.6-0.8,1.1-0.9C19,1.9,19.5,2,20,2.3
			c1.2,0.8,2.8,0.8,4.1,0C24.5,2,25,1.9,25.5,2.1C26,2.2,26.4,2.5,26.6,3c0.7,1.3,2.1,2.1,3.5,2c0.5,0,1,0.2,1.3,0.5
			C31.8,5.9,32,6.4,32,6.9c-0.1,1.5,0.7,2.9,2,3.5c0.5,0.2,0.8,0.6,0.9,1.1c0.1,0.5,0.1,1-0.2,1.4C33.9,14.2,33.9,15.8,34.7,17z"/>
		
			<linearGradient id="SVGID_2_" gradientUnits="userSpaceOnUse" x1="18" y1="30.9625" x2="26" y2="30.9625" gradientTransform="matrix(1 0 0 -1 0 46)">
			<stop  offset="0" style="stop-color:#F3C57A"/>
			<stop  offset="0.4937" style="stop-color:#F39369"/>
			<stop  offset="1" style="stop-color:#E94867"/>
		</linearGradient>
		<path class="st1" d="M26,14c0-0.1-0.1-0.2-0.2-0.2l-2.5-0.4l-1.1-2.3c0-0.1-0.1-0.1-0.2-0.1s-0.2,0.1-0.2,0.1l-1.1,2.3l-2.5,0.4
			c-0.1,0-0.2,0.1-0.2,0.2c0,0.1,0,0.2,0.1,0.3l1.8,1.8l-0.4,2.6c0,0.1,0,0.2,0.1,0.3c0.1,0.1,0.2,0.1,0.3,0l2.2-1.2l2.2,1.2h0.1
			c0.1,0,0.1,0,0.1-0.1c0.1-0.1,0.1-0.2,0.1-0.3L24.2,16l1.8-1.8C26,14.2,26,14.1,26,14z"/>
		
			<linearGradient id="SVGID_3_" gradientUnits="userSpaceOnUse" x1="12" y1="31" x2="32" y2="31" gradientTransform="matrix(1 0 0 -1 0 46)">
			<stop  offset="0" style="stop-color:#1A9AF5"/>
			<stop  offset="1" style="stop-color:#1689F9"/>
		</linearGradient>
		<path class="st2" d="M22,5c-5.5,0-10,4.5-10,10c0,0.6,0.4,1,1,1s1-0.4,1-1c0-4.4,3.6-8,8-8s8,3.6,8,8s-3.6,8-8,8
			c-3.1,0-5.8-1.7-7.2-4.4c-0.2-0.5-0.8-0.7-1.3-0.5C13,18.4,12.8,19,13,19.4c1.7,3.4,5.1,5.6,9,5.6c5.5,0,10-4.5,10-10S27.5,5,22,5
			z"/>
	</g>
</g>
<g id="scales">
</g>
<g id="bishop">
</g>
<g id="billboard">
</g>
<g id="billboard_x5F_small">
</g>
<g id="strategy">
</g>
<g id="advertising">
</g>
<g id="queen">
</g>
<g id="mobile_x5F_shop">
</g>
<g id="web_x5F_shop">
</g>
<g id="target">
</g>
<g id="mobile_x5F_marketing_1_">
</g>
<g id="mobile_x5F__campaign">
</g>
<g id="success">
</g>
<g id="ppk">
</g>
<g id="pawn">
</g>
<g id="audience">
</g>
<g id="Layer_3">
</g>
</svg>
