<?xml version="1.0" encoding="utf-8"?>
<!-- Generator: Adobe Illustrator 23.0.1, SVG Export Plug-In . SVG Version: 6.00 Build 0)  -->
<svg version="1.1" id="Layer_1" xmlns="http://www.w3.org/2000/svg" xmlns:xlink="http://www.w3.org/1999/xlink" x="0px" y="0px"
	 viewBox="0 0 44 44" style="enable-background:new 0 0 44 44;" xml:space="preserve">
<style type="text/css">
	.st0{fill:url(#SVGID_1_);}
	.st1{fill:url(#SVGID_2_);}
</style>
<linearGradient id="SVGID_1_" gradientUnits="userSpaceOnUse" x1="0" y1="24.0625" x2="43.9076" y2="24.0625" gradientTransform="matrix(1 0 0 -1 0 46)">
	<stop  offset="0" style="stop-color:#1A9AF5"/>
	<stop  offset="1" style="stop-color:#1689F9"/>
</linearGradient>
<path class="st0" d="M41.8,11.9L24.4,5.5c-1.9-0.7-4-0.7-5.9,0L2.2,11.8C0.8,12.3,0,13.6,0,15s0.9,2.6,2.2,3.1l17.4,6.4
	c0.9,0.3,1.9,0.5,2.9,0.5s2-0.2,2.8-0.6l4-1.5c0.5-0.2,0.8-0.8,0.6-1.3s-0.8-0.8-1.3-0.6l-4,1.5c-1.3,0.5-2.8,0.5-4.3,0L2.9,16.2
	C2.1,15.9,2,15.2,2,15s0.1-1,0.9-1.3l16.3-6.2c1.4-0.5,3-0.6,4.5,0l17.4,6.4C41.7,14,42,14.4,42,15s-0.4,1.1-1,1.3L34,19l-10.6-4.3
	c-0.3-0.4-1-0.7-1.9-0.7c-1.1,0-2,0.5-2,1s0.8,0.9,1.8,1L33,20.7v12.4c-1.2,0.4-2,1.5-2,2.8c0,1.7,1.3,3,3,3s3-1.3,3-3
	c0-1.1-0.6-2.1-1.6-2.6c0.8-0.5,1.6-1.1,2.2-1.6c0.2-0.2,0.3-0.5,0.3-0.7v-8c0-0.6-0.4-1-1-1s-1,0.4-1,1v7.5c-0.3,0.3-0.6,0.5-1,0.7
	V20.8l6.7-2.5c1.4-0.5,2.3-1.8,2.3-3.2C44,13.6,43.1,12.4,41.8,11.9z M34,37c-0.6,0-1-0.4-1-1s0.4-1,1-1s1,0.4,1,1S34.6,37,34,37z"
	/>
<linearGradient id="SVGID_2_" gradientUnits="userSpaceOnUse" x1="6" y1="16.5" x2="28.9526" y2="16.5" gradientTransform="matrix(1 0 0 -1 0 46)">
	<stop  offset="0" style="stop-color:#F3C57A"/>
	<stop  offset="0.4937" style="stop-color:#F39369"/>
	<stop  offset="1" style="stop-color:#E94867"/>
</linearGradient>
<path class="st1" d="M27.8,34.3c-2,0.5-4,0.7-5.8,0.7c-5,0-10.9-1.9-14-4.5V23c0-0.6-0.4-1-1-1s-1,0.4-1,1v8c0,0.3,0.1,0.6,0.3,0.7
	C10.2,35.2,17.1,37,22,37c1.9,0,4.1-0.3,6.2-0.8c0.5-0.1,0.9-0.7,0.7-1.2C28.8,34.5,28.3,34.1,27.8,34.3z"/>
</svg>
