<?xml version="1.0" encoding="utf-8"?>
<!-- Generator: Adobe Illustrator 23.0.1, SVG Export Plug-In . SVG Version: 6.00 Build 0)  -->
<svg version="1.1" id="ART" xmlns="http://www.w3.org/2000/svg" xmlns:xlink="http://www.w3.org/1999/xlink" x="0px" y="0px"
	 viewBox="0 0 48 48" style="enable-background:new 0 0 48 48;" xml:space="preserve">
<style type="text/css">
	.st0{fill:url(#SVGID_1_);}
	.st1{fill:url(#SVGID_2_);}
	.st2{fill:url(#SVGID_3_);}
	.st3{fill:url(#SVGID_4_);}
	.st4{fill:url(#SVGID_5_);}
	.st5{fill:url(#SVGID_6_);}
</style>
<g>
	<linearGradient id="SVGID_1_" gradientUnits="userSpaceOnUse" x1="21" y1="49.6667" x2="21" y2="-18.0738">
		<stop  offset="0" style="stop-color:#273A9B"/>
		<stop  offset="0.5604" style="stop-color:#202F65"/>
		<stop  offset="1" style="stop-color:#021E2F"/>
	</linearGradient>
	<path class="st0" d="M36.33,30.72c-0.2-1.09,0-2.21,0.54-3.17c1.7-3.02,2.48-6.63,1.93-10.46C37.75,9.73,31.71,3.9,24.32,3.1
		C17,2.31,10.53,6.31,7.62,12.36l-4.45,9.45C2.69,22.83,3.44,24,4.57,24h0.44c0.54,0,0.97,0.43,0.97,0.97v4.23
		c0,3.75,3.04,6.8,6.8,6.8h0.02c2.24,0,4.13,1.64,4.45,3.86L17.98,45h21L36.33,30.72z"/>
</g>
<linearGradient id="SVGID_2_" gradientUnits="userSpaceOnUse" x1="30.5814" y1="57.125" x2="30.5814" y2="11.5165">
	<stop  offset="0" style="stop-color:#273A9B"/>
	<stop  offset="0.5604" style="stop-color:#202F65"/>
	<stop  offset="1" style="stop-color:#021E2F"/>
</linearGradient>
<path class="st1" d="M22.19,45h16.79l-2.64-14.28c-0.2-1.09,0-2.21,0.54-3.17c1.7-3.02,2.48-6.63,1.93-10.46
	c-0.29-2-0.95-3.89-1.91-5.6l-14.71,3.76V45z"/>
<g>
	<linearGradient id="SVGID_3_" gradientUnits="userSpaceOnUse" x1="33.5932" y1="-5.1323" x2="33.5932" y2="42.8065">
		<stop  offset="0" style="stop-color:#F3C57A"/>
		<stop  offset="0.4937" style="stop-color:#F39369"/>
		<stop  offset="1" style="stop-color:#E94867"/>
	</linearGradient>
	<path class="st2" d="M45,14.41c0-6.73-5.83-12.1-12.71-11.33c-5.25,0.58-9.48,4.84-10.04,10.09c-0.43,4.03,1.25,7.68,4.06,10.01
		c1.55,1.29,2.64,3.05,2.93,5.04l0.07,0.5h8.57l0,0c0.31-2.15,1.35-4.17,3.02-5.56C43.4,21.07,45,17.93,45,14.41z"/>
	<linearGradient id="SVGID_4_" gradientUnits="userSpaceOnUse" x1="12.0621" y1="34.6604" x2="42.6871" y2="6.9105">
		<stop  offset="0" style="stop-color:#F3C57A"/>
		<stop  offset="0.4937" style="stop-color:#F39369"/>
		<stop  offset="1" style="stop-color:#E94867"/>
	</linearGradient>
	<path class="st3" d="M28.56,4.17c-3.42,1.69-5.9,5.07-6.31,9c-0.43,4.03,1.25,7.68,4.06,10.01c1.55,1.29,2.64,3.05,2.93,5.04
		l0.07,0.5h7.11c0.1-0.4,0.24-0.8,0.45-1.17c1.7-3.02,2.48-6.63,1.93-10.46C37.96,11.2,33.93,6.31,28.56,4.17z"/>
	<linearGradient id="SVGID_5_" gradientUnits="userSpaceOnUse" x1="33.5932" y1="27.1964" x2="33.5932" y2="46.3444">
		<stop  offset="0" style="stop-color:#F3C57A"/>
		<stop  offset="0.4937" style="stop-color:#F39369"/>
		<stop  offset="1" style="stop-color:#E94867"/>
	</linearGradient>
	<path class="st4" d="M35.76,33h-4.32c-1.17,0-2.12-0.95-2.12-2.12v-2.16h8.57v2.16C37.88,32.05,36.93,33,35.76,33z"/>
	<linearGradient id="SVGID_6_" gradientUnits="userSpaceOnUse" x1="33.5932" y1="35.3213" x2="33.5932" y2="24.4196">
		<stop  offset="0" style="stop-color:#F3C57A"/>
		<stop  offset="0.4937" style="stop-color:#F39369"/>
		<stop  offset="1" style="stop-color:#E94867"/>
	</linearGradient>
	<rect x="29.31" y="28.71" class="st5" width="8.57" height="1.07"/>
</g>
</svg>
