<?xml version="1.0" encoding="utf-8"?>
<!-- Generator: Adobe Illustrator 23.0.1, SVG Export Plug-In . SVG Version: 6.00 Build 0)  -->
<svg version="1.1" id="Layer_1" xmlns="http://www.w3.org/2000/svg" xmlns:xlink="http://www.w3.org/1999/xlink" x="0px" y="0px"
	 viewBox="0 0 44 44" style="enable-background:new 0 0 44 44;" xml:space="preserve">
<style type="text/css">
	.st0{fill:url(#SVGID_1_);}
	.st1{fill:url(#SVGID_2_);}
</style>
<g id="lock">
</g>
<g id="key_x5F_1">
</g>
<g id="alert">
</g>
<g id="car">
</g>
<g id="alarm">
</g>
<g id="firewall">
</g>
<g id="handcuffs">
</g>
<g id="firefighter">
</g>
<g id="policeman">
</g>
<g id="police">
</g>
<g id="jail">
</g>
<g id="shield">
</g>
<g id="key_x5F_2">
	<g>
		
			<linearGradient id="SVGID_1_" gradientUnits="userSpaceOnUse" x1="32" y1="38" x2="40" y2="38" gradientTransform="matrix(1 0 0 -1 0 46)">
			<stop  offset="0" style="stop-color:#F3C57A"/>
			<stop  offset="0.4937" style="stop-color:#F39369"/>
			<stop  offset="1" style="stop-color:#E94867"/>
		</linearGradient>
		<path class="st0" d="M40,8c0-2.21-1.79-4-4-4s-4,1.79-4,4s1.79,4,4,4S40,10.21,40,8z M34,8c0-1.1,0.9-2,2-2s2,0.9,2,2s-0.9,2-2,2
			S34,9.1,34,8z"/>
		
			<linearGradient id="SVGID_2_" gradientUnits="userSpaceOnUse" x1="0" y1="24" x2="44" y2="24" gradientTransform="matrix(1 0 0 -1 0 46)">
			<stop  offset="0" style="stop-color:#1A9AF5"/>
			<stop  offset="1" style="stop-color:#1689F9"/>
		</linearGradient>
		<path class="st1" d="M44,8c0-4.41-3.59-8-8-8c-2.44,0-4.69,1.09-6.21,2.96C28.63,2.33,27.34,2,26,2c-4.41,0-8,3.59-8,8
			c0,2.04,0.77,3.98,2.14,5.45L20,15.59c-0.65,0.64-1,1.5-1,2.41c0,0.71,0.22,1.4,0.62,1.97L0.91,38.67C0.32,39.26,0,40.04,0,40.88
			C0,42.6,1.4,44,3.12,44c0.82,0,1.63-0.33,2.21-0.91l0.97-0.96c0.39-0.39,1.02-0.39,1.41,0l0.96,0.97c0.58,0.57,1.39,0.9,2.21,0.9
			C12.6,44,14,42.6,14,40.88c0-0.83-0.32-1.62-0.91-2.21L11.41,37L13,35.41l3.67,3.67c0.58,0.58,1.38,0.91,2.21,0.91
			C20.6,40,22,38.6,22,36.88c0-0.83-0.32-1.62-0.91-2.21l-2.97-2.97c-0.19-0.19-0.29-0.44-0.29-0.71s0.1-0.52,0.29-0.71l3.59-3.59
			c0.39-0.39,0.39-1.02,0-1.41s-1.02-0.39-1.41,0l-3.59,3.58c-0.57,0.57-0.88,1.32-0.88,2.12s0.31,1.55,0.88,2.12l2.97,2.97
			c0.2,0.23,0.32,0.51,0.32,0.81C20,37.5,19.5,38,18.88,38c-0.3,0-0.58-0.12-0.79-0.33l-4.38-4.38c-0.39-0.39-1.02-0.39-1.41,0l-3,3
			c-0.39,0.39-0.39,1.02,0,1.41l2.38,2.38c0.2,0.22,0.32,0.5,0.32,0.8C12,41.5,11.5,42,10.88,42c-0.3,0-0.58-0.12-0.79-0.33
			L9.12,40.7c-1.17-1.17-3.07-1.17-4.24,0l-0.96,0.97C3.7,41.88,3.42,42,3.12,42C2.5,42,2,41.5,2,40.88c0-0.3,0.12-0.58,0.33-0.79
			l19.38-19.38c0.39-0.39,0.39-1.02,0-1.41l-0.3-0.3C21.15,18.73,21,18.38,21,18s0.15-0.73,0.41-1l0.87-0.87
			c0.22-0.22,0.32-0.54,0.27-0.85c-0.04-0.26-0.18-0.49-0.38-0.65C20.8,13.48,20,11.8,20,10c0-3.31,2.69-6,6-6
			c1.25,0,2.45,0.39,3.48,1.12c0.23,0.16,0.5,0.22,0.78,0.17c0.27-0.05,0.51-0.22,0.65-0.45C32.02,3.06,33.92,2,36,2
			c3.31,0,6,2.69,6,6c0,2.08-1.06,3.98-2.84,5.09c-0.23,0.15-0.4,0.38-0.45,0.65c-0.06,0.27,0.01,0.55,0.17,0.78
			C39.61,15.55,40,16.75,40,18c0,3.31-2.69,6-6,6s-6-2.69-6-6c0-0.28,0.03-0.58,0.08-0.94c0.05-0.32-0.06-0.64-0.28-0.86
			c-0.23-0.23-0.55-0.33-0.86-0.28c-0.7,0.11-1.23,0.1-1.8,0.02c-0.54-0.08-1.05,0.3-1.13,0.85s0.3,1.05,0.85,1.13
			C25.24,17.97,25.62,18,26,18c0,1.59,0.47,3.07,1.27,4.31L27,22.58c-0.53,0.53-1.47,0.53-2,0l-0.29-0.29
			c-0.39-0.39-1.02-0.39-1.41,0s-0.39,1.02,0,1.41l0.29,0.3c0.65,0.65,1.5,1,2.41,1s1.77-0.35,2.41-1l0.15-0.15
			C29.99,25.18,31.9,26,34,26c4.41,0,8-3.59,8-8c0-1.34-0.33-2.63-0.96-3.79C42.91,12.69,44,10.44,44,8z"/>
	</g>
</g>
<g id="home">
</g>
<g id="unlock">
</g>
<g id="internet">
</g>
<g id="password">
</g>
<g id="extinguisher">
</g>
<g id="scales">
</g>
<g id="camera">
</g>
<g id="Layer_3_1_">
</g>
</svg>
