<?xml version="1.0" encoding="utf-8"?>
<!-- Generator: Adobe Illustrator 23.0.1, SVG Export Plug-In . SVG Version: 6.00 Build 0)  -->
<svg version="1.1" id="Layer_1" xmlns="http://www.w3.org/2000/svg" xmlns:xlink="http://www.w3.org/1999/xlink" x="0px" y="0px"
	 viewBox="0 0 44 44" style="enable-background:new 0 0 44 44;" xml:space="preserve">
<style type="text/css">
	.st0{fill:url(#SVGID_1_);}
	.st1{fill:url(#SVGID_2_);}
	.st2{fill:url(#SVGID_3_);}
	.st3{fill:url(#SVGID_4_);}
</style>
<g>
	<linearGradient id="SVGID_1_" gradientUnits="userSpaceOnUse" x1="4.0507" y1="15.88" x2="41.0507" y2="15.88">
		<stop  offset="0" style="stop-color:#F3C57A"/>
		<stop  offset="0.4937" style="stop-color:#F39369"/>
		<stop  offset="1" style="stop-color:#E94867"/>
	</linearGradient>
	<path class="st0" d="M9.05,18.88c-1.3,0-2.4,0.84-2.82,2H5.05c-0.55,0-1,0.45-1,1s0.45,1,1,1h1.18c0.41,1.16,1.51,2,2.82,2
		c1.65,0,3-1.35,3-3c0-0.46-0.11-0.89-0.3-1.29l4.02-4.02c0.39,0.19,0.82,0.3,1.29,0.3c0.72,0,1.38-0.27,1.9-0.7l5.16,3.1
		c-0.04,0.19-0.06,0.39-0.06,0.6c0,1.65,1.35,3,3,3c1.65,0,3-1.35,3-3c0-0.52-0.14-1-0.37-1.42l5.23-5.81
		c0.35,0.15,0.74,0.23,1.15,0.23c1.3,0,2.4-0.84,2.82-2h1.18c0.55,0,1-0.45,1-1s-0.45-1-1-1h-1.18c-0.41-1.16-1.51-2-2.82-2
		c-1.65,0-3,1.35-3,3c0,0.52,0.14,1,0.37,1.42l-5.23,5.81c-0.35-0.15-0.74-0.23-1.15-0.23c-0.72,0-1.38,0.27-1.9,0.7l-5.16-3.1
		c0.04-0.19,0.06-0.39,0.06-0.6c0-1.65-1.35-3-3-3s-3,1.35-3,3c0,0.46,0.11,0.89,0.3,1.29l-4.02,4.02
		C9.94,18.99,9.51,18.88,9.05,18.88z M9.05,22.88c-0.55,0-1-0.45-1-1s0.45-1,1-1c0.55,0,1,0.45,1,1S9.6,22.88,9.05,22.88z
		 M36.05,8.88c0.55,0,1,0.45,1,1s-0.45,1-1,1s-1-0.45-1-1S35.5,8.88,36.05,8.88z M27.05,18.88c0.55,0,1,0.45,1,1s-0.45,1-1,1
		s-1-0.45-1-1S26.5,18.88,27.05,18.88z M17.05,12.88c0.55,0,1,0.45,1,1s-0.45,1-1,1s-1-0.45-1-1S16.5,12.88,17.05,12.88z"/>
	<linearGradient id="SVGID_2_" gradientUnits="userSpaceOnUse" x1="21.0507" y1="31.88" x2="23.0507" y2="31.88">
		<stop  offset="0" style="stop-color:#1A9AF5"/>
		<stop  offset="1" style="stop-color:#1689F9"/>
	</linearGradient>
	<circle class="st1" cx="22.05" cy="31.88" r="1"/>
	<linearGradient id="SVGID_3_" gradientUnits="userSpaceOnUse" x1="4.0507" y1="27.88" x2="40.0507" y2="27.88">
		<stop  offset="0" style="stop-color:#1A9AF5"/>
		<stop  offset="1" style="stop-color:#1689F9"/>
	</linearGradient>
	<path class="st2" d="M5.05,28.88h34c0.55,0,1-0.45,1-1s-0.45-1-1-1h-34c-0.55,0-1,0.45-1,1S4.5,28.88,5.05,28.88z"/>
	<linearGradient id="SVGID_4_" gradientUnits="userSpaceOnUse" x1="0.0507" y1="22.88" x2="44.0507" y2="22.88">
		<stop  offset="0" style="stop-color:#1A9AF5"/>
		<stop  offset="1" style="stop-color:#1689F9"/>
	</linearGradient>
	<path class="st3" d="M41.05,2.88h-38c-1.65,0-3,1.35-3,3v28c0,1.65,1.35,3,3,3h11c0.55,0,1-0.45,1-1s-0.45-1-1-1h-11
		c-0.55,0-1-0.45-1-1v-28c0-0.55,0.45-1,1-1h38c0.55,0,1,0.45,1,1v28c0,0.55-0.45,1-1,1h-23c-0.55,0-1,0.45-1,1v4c0,0.55-0.45,1-1,1
		h-1c-0.55,0-1,0.45-1,1s0.45,1,1,1h14c0.55,0,1-0.45,1-1s-0.45-1-1-1h-1c-0.55,0-1-0.45-1-1v-3h14c1.65,0,3-1.35,3-3v-28
		C44.05,4.23,42.71,2.88,41.05,2.88z M25.24,40.88h-6.37c0.11-0.31,0.18-0.65,0.18-1v-3h6v3C25.05,40.23,25.12,40.57,25.24,40.88z"
		/>
</g>
</svg>
